<?xml version="1.0" encoding="UTF-8"?><svg id="Ebene_2" xmlns="http://www.w3.org/2000/svg" viewBox="0 0 1007.64 1166.29"><defs><style>.cls-1{fill:#005e64;}</style></defs><g id="green"><path class="cls-1" d="M984.02,881.39c-15.17-11.34-33.57-17.53-52.51-17.67-36.61,0-49.56,18.79-55.86,28.69h-.76v-21.68h-57.28v204.35h61.35v-111.22c0-12.49,0-42.71,35.14-42.71,32.15,0,32.15,27.98,32.15,42.35v111.72h61.4v-127.92c.05-40.12-12.29-56.37-23.61-65.92Z"/><path class="cls-1" d="M578.93,991.49c9.02,52.11,54.22,90.17,107.1,90.19,20.91,.13,41.33-6.3,58.4-18.38,18.61-13.12,33.1-31.26,41.79-52.31h-62.87c-8.35,12.35-22.43,19.57-37.33,19.15-24.02,0-44.38-14.32-48.09-38.65h153.82c1-5.34,1.5-10.77,1.47-16.2,0-62.21-45.86-111.57-108.32-111.57-56.32,0-98.42,42.81-106.19,93.03,0,0-1.85,14.64,.2,34.74Zm59.97-41.44c2.59-12.19,14.78-34.99,46.57-34.99s43.98,22.8,46.57,34.99h-93.14Z"/><path class="cls-1" d="M578.8,956.75c-8.13-53.17-50.78-93.03-106.64-93.03-62.51,0-107.61,52.66-107.61,109.69,.22,59.82,48.75,108.21,108.57,108.27,20.91,.13,41.33-6.3,58.4-18.38,18.61-13.12,33.1-31.26,41.79-52.31h-62.87c-8.35,12.35-22.43,19.57-37.33,19.15-24.02,0-44.38-14.32-48.09-38.65h153.97v-1.35c1.95-14.62-.2-33.38-.2-33.38Zm-152.81-6.7c2.59-12.19,14.78-34.99,46.57-34.99s44.03,22.8,46.57,34.99h-93.14Z"/><path class="cls-1" d="M390.22,874.89c-28.39-18.13-68.2-3.05-77.9,17.52h-.76v-21.68h-57.64v204.35h61.35v-112.33c0-30.47,11.73-44.54,39.51-38.75,7.76-18.95,19.91-35.78,35.45-49.11Z"/><path class="cls-1" d="M160.83,889.87h-.76c-11.07-17.67-33.62-25.8-56.57-25.8-53.22,0-103.5,40.17-103.5,110.1,0,65.56,47.69,107.51,103.5,107.51,32.2,0,49.92-17.32,56.22-29.1h.71v6.3c0,54.85-42.1,55.86-49.87,55.86-4.06,0-27.32-.41-37.63-19.7l-55.86,32.04c14.68,20.82,42.15,39.2,88.87,39.2,50.78,0,88.01-22.5,103.9-48.24,10.16-17.32,12.19-36.82,12.19-67.39v-179.92h-61.19v19.15Zm-50.28,134.73c-25.39,0-49.21-19.86-49.21-52.66-.56-27.48,21.26-50.21,48.74-50.77,.27,0,.55,0,.82,0,27.37,0,49.92,19.91,49.92,52.66,1.22,26.81-19.52,49.54-46.33,50.76-1.31,.06-2.63,.07-3.94,.02Z"/><path class="cls-1" d="M669.68,551.1c.29-21.71-3.52-43.28-11.22-63.58-38.28,48.57-96.65,77-158.49,77.19-163.01,0-295.66-134.12-295.66-298.96-.09-59.19,17.35-117.08,50.12-166.37-70.5,68.29-110.34,162.21-110.45,260.37,0,198.51,159.66,360,355.99,360,102.07,0,169.72-86.38,169.72-168.65Z"/><path class="cls-1" d="M590.3,370.72c69.67,32.41,113.69,102.84,112.28,179.67,0,94.51-67.29,147.98-73.74,153.21,80.66-29.77,148.21-87.09,190.69-161.85,21.79-38.99,36.5-81.52,43.47-125.64,2.29-14.42,1.07-45.4-36.21-45.4h-236.5Z"/><path class="cls-1" d="M325.98,464.77c-18.78-31.81-28.69-68.08-28.69-105.02,0-112.99,90.9-204.91,202.68-204.91,54.2-.92,106.29,20.97,143.56,60.33,51,51.68,129.49,64.64,194.4,32.09-12.03-37.14-30.04-72.06-53.32-103.39C717.9,53.35,612.14-.06,499.71,0,354.92,0,237.16,110.3,237.16,265.75c-.07,75.96,32.23,148.35,88.82,199.02Z"/></g></svg>